<svg xmlns="http://www.w3.org/2000/svg" width="512" height="512" style="width:100%;height:100%;transform:translate3d(0,0,0);content-visibility:visible"><defs><linearGradient id="b" x1="-140.158" x2="183.78" y1="75.743" y2="75.743" gradientUnits="userSpaceOnUse" spreadMethod="pad"><stop offset="0%" stop-color="#F6F5F0"/><stop offset="25%" stop-color="#D0CDC6"/><stop offset="51%" stop-color="#AAA59B"/><stop offset="82%" stop-color="#C9C5BC"/><stop offset="100%" stop-color="#E8E5DD"/></linearGradient><linearGradient id="c" x1="57.842" x2="-57.556" y1="-29.257" y2="147.316" gradientUnits="userSpaceOnUse" spreadMethod="pad"><stop offset="2%" stop-color="#CDC9C0"/><stop offset="16%" stop-color="#ACA89C"/><stop offset="45%" stop-color="#8B8777"/><stop offset="71%" stop-color="#B5B1A5"/><stop offset="87%" stop-color="#DEDBD4"/></linearGradient><linearGradient id="d" x1="-124.675" x2="-112.857" y1="-10.653" y2="32.061" gradientUnits="userSpaceOnUse" spreadMethod="pad"><stop offset="0%" stop-color="#56524B"/><stop offset="56%" stop-color="#56524B" stop-opacity=".5"/><stop offset="92%" stop-color="#56524B" stop-opacity="0"/></linearGradient><linearGradient id="e" x1="132.842" x2="149.753" y1="29.743" y2="49.853" gradientUnits="userSpaceOnUse" spreadMethod="pad"><stop offset="0%" stop-color="#56524B"/><stop offset="56%" stop-color="#56524B" stop-opacity=".5"/><stop offset="92%" stop-color="#56524B" stop-opacity="0"/></linearGradient><linearGradient id="f" x1="-82.158" x2="-69.673" y1="179.743" y2="133.55" gradientUnits="userSpaceOnUse" spreadMethod="pad"><stop offset="0%" stop-color="#56524B"/><stop offset="56%" stop-color="#56524B" stop-opacity=".5"/><stop offset="92%" stop-color="#56524B" stop-opacity="0"/></linearGradient><linearGradient id="m" x1="8.842" x2="97.646" y1="-3.257" y2="101.147" gradientUnits="userSpaceOnUse" spreadMethod="pad"><stop offset="0%" stop-color="#FFF"/><stop offset="60%" stop-color="#E3D8CE" stop-opacity=".65"/><stop offset="100%" stop-color="#C7B19D" stop-opacity=".3"/></linearGradient><linearGradient id="p" x1="-7.158" x2="-7.158" y1="-86.257" y2="-63.003" gradientUnits="userSpaceOnUse" spreadMethod="pad"><stop offset="18%" stop-color="#543419"/><stop offset="60%" stop-color="#49290C"/><stop offset="100%" stop-color="#3E1E00"/></linearGradient><linearGradient id="i" x1="103.842" x2="231.836" y1="6.743" y2="37.675" gradientUnits="userSpaceOnUse" spreadMethod="pad"><stop offset="0%" stop-color="#625F5A"/><stop offset="20%" stop-color="#79766D"/><stop offset="41%" stop-color="#908C80"/><stop offset="73%" stop-color="#A5A198"/><stop offset="100%" stop-color="#BAB7B0"/></linearGradient><linearGradient id="j" x1="99.842" x2="197.486" y1="83.743" y2="41.239" gradientUnits="userSpaceOnUse" spreadMethod="pad"><stop offset="0%" stop-color="#D1CEC8" stop-opacity=".7"/><stop offset="58%" stop-color="#B1ADA7" stop-opacity=".85"/><stop offset="100%" stop-color="#918D86"/></linearGradient><linearGradient id="k" x1="161.842" x2="231.048" y1="-3.257" y2="8.277" gradientUnits="userSpaceOnUse" spreadMethod="pad"><stop offset="0%" stop-color="#ADABA6"/><stop offset="20%" stop-color="#CBC9C4"/><stop offset="41%" stop-color="#E9E7E1"/><stop offset="73%" stop-color="#EEECE9"/><stop offset="100%" stop-color="#F3F2F0"/></linearGradient><linearGradient id="r" x1="6.38" x2="-6.47" y1="121.277" y2="-93.149" gradientUnits="userSpaceOnUse" spreadMethod="pad"><stop offset="0%" stop-color="#FFF" stop-opacity=".8"/><stop offset="67%" stop-color="#FFF" stop-opacity=".4"/><stop offset="100%" stop-color="#FFF" stop-opacity="0"/></linearGradient><linearGradient id="s" x1="2.134" x2="-1.476" y1="126.8" y2="-70.992" gradientUnits="userSpaceOnUse" spreadMethod="pad"><stop offset="0%" stop-color="#FFF"/><stop offset="67%" stop-color="#FFF" stop-opacity=".5"/><stop offset="100%" stop-color="#FFF" stop-opacity="0"/></linearGradient><linearGradient id="t" x1="7.634" x2="-4.476" y1="86.8" y2="-23.992" gradientUnits="userSpaceOnUse" spreadMethod="pad"><stop offset="0%" stop-color="#FFF"/><stop offset="67%" stop-color="#FFF" stop-opacity=".5"/><stop offset="100%" stop-color="#FFF" stop-opacity="0"/></linearGradient><linearGradient id="u" x1="103.842" x2="231.836" y1="6.743" y2="37.675" gradientUnits="userSpaceOnUse" spreadMethod="pad"><stop offset="0%" stop-color="#625F5A"/><stop offset="20%" stop-color="#79766D"/><stop offset="41%" stop-color="#908C80"/><stop offset="73%" stop-color="#A5A198"/><stop offset="100%" stop-color="#BAB7B0"/></linearGradient><linearGradient id="v" x1="99.842" x2="197.486" y1="83.743" y2="41.239" gradientUnits="userSpaceOnUse" spreadMethod="pad"><stop offset="0%" stop-color="#D1CEC8" stop-opacity=".7"/><stop offset="58%" stop-color="#B1ADA7" stop-opacity=".85"/><stop offset="100%" stop-color="#918D86"/></linearGradient><linearGradient id="w" x1="161.842" x2="231.048" y1="-3.257" y2="8.277" gradientUnits="userSpaceOnUse" spreadMethod="pad"><stop offset="0%" stop-color="#ADABA6"/><stop offset="20%" stop-color="#CBC9C4"/><stop offset="41%" stop-color="#E9E7E1"/><stop offset="73%" stop-color="#EEECE9"/><stop offset="100%" stop-color="#F3F2F0"/></linearGradient><linearGradient id="x" x1="103.842" x2="231.836" y1="6.743" y2="37.675" gradientUnits="userSpaceOnUse" spreadMethod="pad"><stop offset="0%" stop-color="#625F5A"/><stop offset="20%" stop-color="#79766D"/><stop offset="41%" stop-color="#908C80"/><stop offset="73%" stop-color="#A5A198"/><stop offset="100%" stop-color="#BAB7B0"/></linearGradient><linearGradient id="y" x1="99.842" x2="197.486" y1="83.743" y2="41.239" gradientUnits="userSpaceOnUse" spreadMethod="pad"><stop offset="0%" stop-color="#D1CEC8" stop-opacity=".7"/><stop offset="58%" stop-color="#B1ADA7" stop-opacity=".85"/><stop offset="100%" stop-color="#918D86"/></linearGradient><linearGradient id="z" x1="161.842" x2="231.048" y1="-3.257" y2="8.277" gradientUnits="userSpaceOnUse" spreadMethod="pad"><stop offset="0%" stop-color="#ADABA6"/><stop offset="20%" stop-color="#CBC9C4"/><stop offset="41%" stop-color="#E9E7E1"/><stop offset="73%" stop-color="#EEECE9"/><stop offset="100%" stop-color="#F3F2F0"/></linearGradient><radialGradient id="g" cx="-3.071" cy="93.451" r="118.794" fx="-3.071" fy="93.451" gradientUnits="userSpaceOnUse" spreadMethod="pad"><stop offset="16%" stop-color="#1E0F08"/><stop offset="86%" stop-color="#1D0F07" stop-opacity=".5"/><stop offset="100%" stop-color="#1C0E06" stop-opacity="0"/></radialGradient><radialGradient id="h" cx="0" cy="0" r="100" fx="0" fy="0" gradientUnits="userSpaceOnUse" spreadMethod="pad"><stop offset="0%" stop-color="#160000"/><stop offset="50%" stop-color="#2A0F00"/><stop offset="100%" stop-color="#3E1E00"/></radialGradient><radialGradient id="l" cx="-4.02" cy="10.62" r="139.705" fx="-3.594" fy="10.718" gradientUnits="userSpaceOnUse" spreadMethod="pad"><stop offset="15%" stop-color="#7F7A6C"/><stop offset="67%" stop-color="#B6B4A7"/><stop offset="100%" stop-color="#EDEDE2"/></radialGradient><radialGradient id="n" cx="1.019" cy="-13.257" r="13.296" fx="1.019" fy="-13.257" gradientUnits="userSpaceOnUse" spreadMethod="pad"><stop offset="0%" stop-color="#DFDCD7"/><stop offset="50%" stop-color="#EFEDEB"/><stop offset="100%" stop-color="#FFF"/></radialGradient><radialGradient id="o" cx="5.111" cy="-72.257" r="72.438" fx="5.111" fy="-72.257" gradientUnits="userSpaceOnUse" spreadMethod="pad"><stop offset="0%" stop-color="#B4A9A1"/><stop offset="50%" stop-color="#A9A199"/><stop offset="100%" stop-color="#9E9A91"/></radialGradient><radialGradient id="q" cx="-4.912" cy="-91.507" r="91.639" fx="-4.912" fy="-91.507" gradientUnits="userSpaceOnUse" spreadMethod="pad"><stop offset="11%" stop-color="#59412F"/><stop offset="70%" stop-color="#382017"/><stop offset="100%" stop-color="#160000"/></radialGradient><clipPath id="a"><path d="M0 0h512v512H0z"/></clipPath></defs><g clip-path="url(#a)"><g style="display:block"><path fill="url(#b)" d="M224.191 76.414c0 67.791-103.422 122.746-231 122.746s-230.999-54.955-230.999-122.746S-134.387-46.333-6.809-46.333c127.578 0 231 54.956 231 122.747z" transform="matrix(.85 0 0 .85 261.25 264.4)"/><path fill="url(#c)" d="M214.118 71.597c0 62.996-98.912 114.063-220.927 114.063-122.015 0-220.927-51.067-220.927-114.063S-128.824-42.467-6.809-42.467c122.015 0 220.927 51.068 220.927 114.064z" transform="matrix(.85 0 0 .85 261.25 264.4)"/><path fill="url(#d)" d="M15.649-31.255c-46.66 16.65-89.92 111.35-129.26 82.32-47.44-35.01-94.65-25.91-112.76 7.75 12.31-56.98 105.92-101.28 219.56-101.28 3.26 0 6.51.04 9.74.11l12.72 11.1z" opacity=".2" transform="matrix(.85 0 0 .85 261.25 264.4)"/><path fill="url(#e)" d="M193.569 23.495c-43.24-10.9-66.43 42.5-66.43 42.5l-111.49-97.25c4.43-1.58 8.901-2.46 13.391-2.46 23.27 0 43.639.85 61.559 2.91 45.19 11.48 81.68 30.7 102.97 54.3z" opacity=".2" transform="matrix(.85 0 0 .85 261.25 264.4)"/><path fill="url(#f)" d="M-66.161 181.502c-77.067-11.07-137.171-43.169-155.66-83.577v-.01c57.206 53.514 138.702 23.428 97.505-14.881C-154.233 55.214-2.811 98.086-2.811 98.086s112.149-20.927 106.18-.783c-25.064 84.576-150.644 86.912-169.53 84.199z" opacity=".2" transform="matrix(.85 0 0 .85 261.25 264.4)"/><path fill="url(#g)" d="M118.027 99.086c0 62.882-54.549 113.859-121.838 113.859-67.289 0-121.837-50.977-121.837-113.859S-71.1-14.772-3.811-14.772 118.027 36.204 118.027 99.086z" opacity=".5" transform="matrix(.85 0 0 .4746 261.25 295.506)"/><path fill="none" stroke="#938D82" stroke-linecap="round" stroke-linejoin="round" stroke-width="6.8" d="M451.812 329.352c0 57.623-87.909 104.334-196.35 104.334-108.441 0-196.349-46.712-196.349-104.335 0-57.622 87.908-104.334 196.35-104.334 108.441 0 196.35 46.713 196.35 104.335z"/><path fill="none" stroke="#56524B" stroke-linecap="round" stroke-linejoin="round" stroke-width="6.8" d="M103.95 262.985c36.014-23.188 90.515-37.968 151.513-37.968 64.776 0 122.226 16.668 157.99 42.373M397.118 401.601c-35.731 19.776-85.989 32.085-141.656 32.085-54.22 0-103.307-11.678-138.84-30.559" opacity=".4"/><path fill="url(#h)" fill-opacity=".436" d="M-1.702 42.527c-60.467-.04-106.239 11.708-110.422 41.891-3.368 24.301 38.889 52.17 109.216 52.324 62.026.136 104.379-30.154 104.181-49.153-.251-24.124-42.315-45.022-102.975-45.062z" transform="matrix(.85 0 0 .85 261.25 264.4)"/><path fill="none" stroke="#6B655E" stroke-width="5.95" d="M259.803 300.548c-51.397-.034-90.303 9.952-93.858 35.607-2.863 20.656 33.055 44.345 92.833 44.476 52.722.115 88.722-25.63 88.554-41.78-.213-20.505-35.968-38.269-87.529-38.303z"/></g><g style="display:block"><path fill="url(#i)" d="M150.416 1.522c1.762 11.085 12.703 2.625 15.833-12.522 3.21-15.532 16.161-30.919 38.37-26.439 19.572 3.948 28.002 27.203 16.123 49.955-12.492 23.926-42.563 43.671-75.217 52.276-20.803 5.482-21.404 1.554-34.123 17.075-6.225 7.596-14.805 19.528 7.625 15.076 43.035-8.541 92.953-33.59 111.944-68.437 22.832-41.894 7.493-82.562-27.681-86.533-28.866-3.258-43.178 14.682-46.558 20.013-3.38 5.331-8.185 27.782-6.316 39.536z" transform="matrix(.85 0 0 .85 261.25 264.4)"/><path fill="url(#j)" d="M125.04 82.985c-8.772 9.907 22.699 6.1 22.699 6.1-9.64 3.36-19.34 6-28.71 7.86-22.43 4.45-13.85-7.48-7.63-15.08 12.72-15.52 13.32-11.59 34.13-17.07 32.65-8.61 62.72-28.35 75.21-52.28 1.45-2.77 2.59-5.55 3.45-8.3-5.268 29.875-28.357 47.964-50.349 58.881-22.053 10.947-41.958 12.161-48.8 19.889z" transform="matrix(.85 0 0 .85 261.25 264.4)"/><path fill="url(#k)" d="M183.929-56.928c-11.629 4.601-14.772 18.399 20.69 19.489 22.106.679 29.69 20.085 24.22 44.836-3.929 17.778-14.593 38.315-31.449 56.65 0 0 7.45-4.798 16.244-13.621 13.713-13.759 30.691-37.308 27.777-67.719-4.783-49.912-57.482-39.635-57.482-39.635z" transform="matrix(.85 0 0 .85 261.25 264.4)"/><path fill="none" stroke="#938D82" stroke-linecap="round" stroke-linejoin="round" stroke-width="6.8" d="M389.104 265.694c1.498 9.422 10.797 2.231 13.458-10.644 2.728-13.202 13.737-26.28 32.614-22.473 16.637 3.356 23.802 23.123 13.705 42.462-10.618 20.337-36.179 37.12-63.935 44.435-17.682 4.66-18.193 1.32-29.004 14.513-5.292 6.457-12.585 16.599 6.481 12.815 36.58-7.26 79.01-28.551 95.153-58.171 19.407-35.61 6.369-70.178-23.53-73.553-24.535-2.77-36.7 12.48-39.573 17.01-2.873 4.532-6.958 23.615-5.37 33.606z"/><path fill="none" stroke="#7F796F" stroke-linecap="round" stroke-linejoin="round" stroke-width="6.8" d="M394.473 232.089c-2.873 4.53-6.958 23.614-5.37 33.605 1.499 9.422 10.798 2.231 13.459-10.644 2.728-13.202 13.737-26.28 32.614-22.473 16.637 3.356 23.802 23.123 13.705 42.462-10.618 20.337-36.179 37.12-63.935 44.435-17.682 4.66-18.193 1.32-29.004 14.513-5.292 6.457-12.585 16.599 6.481 12.815"/><path fill="none" stroke="#56524B" stroke-linecap="round" stroke-linejoin="round" stroke-width="6.8" d="M406.87 220.399c-6.918 4.107-10.907 9.34-12.397 11.69-2.873 4.53-6.958 23.614-5.37 33.605 1.499 9.422 10.798 2.231 13.459-10.644 2.728-13.202 13.737-26.28 32.614-22.473 16.637 3.356 23.802 23.123 13.705 42.462" opacity=".7"/><path fill="none" stroke="#56524B" stroke-linecap="round" stroke-linejoin="round" stroke-width="6.8" d="M355.942 333.987c-5.292 6.457-12.585 16.599 6.481 12.815 22.48-4.462 47.17-14.222 66.61-27.959" opacity=".6"/></g><g style="display:block"><path fill="url(#l)" d="M131.085-2.67C104.201-13.844 52.53-21.408-6.809-21.408S-117.817-13.844-144.701-2.67h-.001c-32.588 11.69-33.684 32.075-21.931 58.602 15.282 34.493 47.307 81.758 159.824 81.758 113.839 0 144.543-47.265 159.825-81.758C164.769 29.405 163.673 9.02 131.085-2.67z" transform="matrix(.85 0 0 1.4434 261.25 183.699)"/><path fill="url(#m)" d="M153.02-1.475c-15.284 58.71-45.986 139.17-159.831 139.17-112.515 0-144.536-80.46-159.82-139.17-4.256-16.36-6.834-31.34-6.834-44.75 0-23.61 7.98-42.32 28.768-55.01 26.456-18.72 76.944-31.49 135.114-31.88-53.229.41-99.399 12.49-123.625 30.18-19.049 12.02-24.364 29.73-24.364 52.08 0 12.69 2.363 26.88 6.261 42.36 14.005 55.58 41.367 123.74 144.5 123.74 104.351 0 130.495-68.16 144.511-123.74 10.773-42.75 11.77-75.6-18.103-94.44-24.226-17.69-70.406-29.77-123.635-30.18 58.171.39 108.658 13.16 135.124 31.88 32.584 19.9 33.679 54.6 21.934 99.76z" opacity=".57" transform="matrix(.85 0 0 .85 261.25 264.4)"/><path fill="url(#n)" d="M156.061-62.868c0 37.146-72.92 67.258-162.87 67.258s-162.869-30.112-162.869-67.258 72.919-67.259 162.869-67.259 162.87 30.113 162.87 67.259z" transform="matrix(.85 0 0 .85 261.25 264.4)"/><path fill="url(#o)" d="M142.383-72.182c0 33.659-66.796 60.945-149.192 60.945S-156-38.523-156-72.182s66.795-60.945 149.191-60.945 149.192 27.286 149.192 60.945z" transform="matrix(.85 0 0 .85 261.25 264.4)"/><path fill="url(#p)" d="M131.148-44.789C111.893-21.821 57.969-10.235-6.811-10.235s-118.703-11.586-137.958-34.554c1.214-10.015 11.269-19.854 27.59-28.101 25.098-12.682 65.01-21.598 110.368-21.598 35.717 0 68.055 5.527 92.442 14.068 26.728 9.361 43.906 22.34 45.517 35.631z" transform="matrix(.85 0 0 .85 261.25 264.4)"/><path fill="#160000" d="M360.044 231.633c-20.548 15.384-59.688 25.773-104.583 25.772-44.895 0-84.034-10.388-104.582-25.772 3.533-6.441 10.866-12.333 21.036-17.298 6.6-3.221 14.393-6.053 23.119-8.392 17.193-4.61 38.004-7.307 60.427-7.307 19.19 0 37.198 1.975 52.767 5.433 7.701 1.71 14.806 3.784 21.162 6.16 15.18 5.675 26.088 13.08 30.654 21.404z"/><path fill="url(#q)" d="M116.228-96.85C92.054-45.745 46.007-11.235-6.811-11.235s-98.864-34.51-123.038-85.615c4.157-21.397 12.784-40.968 24.749-57.462 7.764-10.702 16.932-20.108 27.198-27.879 20.227-15.312 44.711-24.272 71.091-24.272 22.576 0 43.762 6.56 62.079 18.046 9.06 5.682 17.418 12.569 24.896 20.463 17.858 18.853 30.692 43.453 36.064 71.104z" transform="matrix(.85 0 0 .30103 261.25 260.788)"/><path fill="none" stroke="#CCC6BE" stroke-linecap="round" stroke-linejoin="round" stroke-width="6.8" d="M382.276 205.956c0 27.003-56.777 48.893-126.813 48.893-70.037 0-126.813-21.89-126.813-48.894 0-27.002 56.776-48.892 126.813-48.891 70.037 0 126.813 21.89 126.813 48.892z"/><path fill="none" stroke="#E2DED9" stroke-linecap="round" stroke-linejoin="round" stroke-width="6.8" d="M134.963 221.232c-4.097-4.806-6.313-9.942-6.313-15.277 0-27.002 56.776-48.892 126.813-48.891 70.037 0 126.813 21.89 126.813 48.892 0 5.596-2.44 10.974-6.93 15.982"/><path fill="none" stroke="#938D82" stroke-linecap="round" stroke-linejoin="round" stroke-width="6.8" d="M372.673 178.354c-22.852-16.167-66.772-27.112-117.21-27.112-50.438 0-94.357 10.944-117.208 27.111h-.001c-27.7 16.914-28.632 46.409-18.642 84.79 12.99 49.907 40.21 118.293 135.85 118.294 96.763 0 122.862-68.386 135.852-118.293 9.99-38.382 9.059-67.877-18.641-84.79z"/><path fill="none" stroke="#56524B" stroke-linecap="round" stroke-linejoin="round" stroke-width="6.8" d="M164.685 349.442c20.725 18.316 48.935 31.994 90.777 31.995 56.596 0 89.017-23.395 108.782-52.803 14.026-20.872 21.677-44.773 27.07-65.49 3.629-13.94 5.816-26.708 5.804-38.127" opacity=".7"/></g><g opacity=".42" style="display:block"><path fill="url(#r)" d="M37.907 85.219c-13.249-4.416-4.783-17.701-7.765-34.77C27.161 33.38 11.355 29.587-3.185 20.104s-20.23-15.805-6.954-29.081-1.264-17.069-11.379-26.552-4.318-14.983-18.215-24.655c-16.753-11.66 22.258-37.363 52.353-22.127 16.092 8.146 3.825 27.706-6.783 28.369-9.547.597-13.536-13.978-17.761-8.117-5.331 7.396-.111 23.37 18.222 37.278C24.631-10.873-.656-1.649-.656 4.802c0 6.451 34.138 20.359 37.299 32.371 3.161 12.012-1.264 35.403 0 41.725 1.264 6.322 14.54 10.746 1.264 6.321z" opacity="1" transform="translate(229.466 143.147) scale(.83335)"/><path fill="url(#s)" d="M6.274 58.931c-1.157 2.758 4.74-2.422 7.7-8.768 2.659-5.699-5.8-7.776 7.447-15.559 11.538-6.779-4.323-11.934-19.833-22.95-15.51-11.016 5.604-22.491-6.33-35.802C-16.676-37.459.565-45.261 10.304-41.589c9.739 3.672-11.658 10.796-1.91 13.308C28.107-23.2 43.912-57.195 11.323-59.49c-32.589-2.295-49.749 15.747-37.356 27.222C-13.64-20.793-4.742-10.133-18.053-.387-31.364 9.359-7.496 17.621 3.979 22.67c11.475 5.049 9.635 13.663.918 16.524-8.717 2.861 7.344 5.508 1.377 19.737z" opacity="1" transform="translate(263.838 142.711) scale(.83335)"/><path fill="url(#t)" d="M-20.021-4.271c-2.064-8.024 9.434-18.548 23.93-16.308 14.496 2.24 23.809 21.576 8.44 25.908C-3.02 9.661 6.443 16.032 4.321 20.157 2.199 24.282-15.284 9.967-3.757.301 7.77-9.365-6.891-9.516-12.463-5.491c-3.508 2.534-5.617 8.768-7.558 1.22z" opacity="1" transform="translate(196.945 135.123) scale(.83335)"/></g></g></svg>