<?xml version="1.0" encoding="utf-8"?>
<!-- meow :3  -->
<svg version="1.1" id="Слой_1" xmlns="http://www.w3.org/2000/svg" xmlns:xlink="http://www.w3.org/1999/xlink" x="0px" y="0px"
	 viewBox="0 0 512 512" style="enable-background:new 0 0 512 512;" xml:space="preserve">
<style type="text/css">
	.st0{fill:none;}
	.st1{fill:url(#SVGID_1_);}
	.st2{fill:url(#SVGID_00000049910734800296074220000012685699170421130937_);}
	.st3{opacity:0.2;fill:url(#SVGID_00000116196571396641524960000003420136435727410828_);enable-background:new    ;}
	.st4{opacity:0.2;fill:url(#SVGID_00000059299927339322183080000013524987243458277249_);enable-background:new    ;}
	.st5{opacity:0.2;fill:url(#SVGID_00000158722385773254070970000009522423033962880440_);enable-background:new    ;}
	.st6{opacity:0.5;fill:url(#SVGID_00000181046918666586027320000016087531303245491109_);enable-background:new    ;}
	.st7{fill:none;stroke:#938D82;stroke-width:6.8;stroke-linecap:round;stroke-linejoin:round;}
	
		.st8{opacity:0.4;fill:none;stroke:#56524B;stroke-width:6.8;stroke-linecap:round;stroke-linejoin:round;enable-background:new    ;}
	.st9{fill:url(#SVGID_00000080166079390065495240000012353711717889582000_);fill-opacity:0.436;}
	.st10{fill:none;stroke:#6B655E;stroke-width:5.95;}
	.st11{fill:url(#SVGID_00000100344674334772268270000004221361086118514342_);}
	.st12{fill:url(#SVGID_00000109748447679427308900000000645602241145873801_);}
	.st13{fill:url(#SVGID_00000078042096061008827720000013888282771294484112_);}
	.st14{fill:none;stroke:#7F796F;stroke-width:6.8;stroke-linecap:round;stroke-linejoin:round;}
	
		.st15{opacity:0.7;fill:none;stroke:#56524B;stroke-width:6.8;stroke-linecap:round;stroke-linejoin:round;enable-background:new    ;}
	
		.st16{opacity:0.6;fill:none;stroke:#56524B;stroke-width:6.8;stroke-linecap:round;stroke-linejoin:round;enable-background:new    ;}
	.st17{fill:url(#SVGID_00000145042079657255783830000017780663223623555241_);}
	.st18{opacity:0.57;fill:url(#SVGID_00000003087871564081070650000016941585918697234367_);enable-background:new    ;}
	.st19{fill:url(#SVGID_00000073706529216320171500000001070518909568513708_);}
	.st20{fill:url(#SVGID_00000181070037040112151900000013280631925045912486_);}
	.st21{fill:url(#SVGID_00000145042948083478821640000004158772957215193490_);}
	.st22{fill:#160000;}
	.st23{fill:url(#SVGID_00000121998037332557574790000017240745034395036300_);}
	.st24{fill:none;stroke:#CCC6BE;stroke-width:6.8;stroke-linecap:round;stroke-linejoin:round;}
	.st25{fill:none;stroke:#E2DED9;stroke-width:6.8;stroke-linecap:round;stroke-linejoin:round;}
	.st26{opacity:0.42;}
	.st27{fill:url(#SVGID_00000150818774765606467900000016683962861769939848_);}
	.st28{fill:url(#SVGID_00000106860080535286682110000015502814871171732385_);}
	.st29{fill:url(#SVGID_00000113341774924660427950000004368988721652093858_);}
</style>
<rect y="0" class="st0" width="512" height="512"/>
<g>
	
		<linearGradient id="SVGID_1_" gradientUnits="userSpaceOnUse" x1="-160.2757" y1="470.09" x2="163.6623" y2="470.09" gradientTransform="matrix(0.85 0 0 -0.85 278.35 728.928)">
		<stop  offset="0" style="stop-color:#F6F5F0"/>
		<stop  offset="0.25" style="stop-color:#D0CDC6"/>
		<stop  offset="0.51" style="stop-color:#AAA59B"/>
		<stop  offset="0.82" style="stop-color:#C9C5BC"/>
		<stop  offset="1" style="stop-color:#E8E5DD"/>
	</linearGradient>
	<path class="st1" d="M451.8,329.4c0,57.6-87.9,104.3-196.4,104.3S59.1,387,59.1,329.4S147,225,255.5,225S451.8,271.7,451.8,329.4z"
		/>
	
		<linearGradient id="SVGID_00000148658328913359984450000011664448253694493112_" gradientUnits="userSpaceOnUse" x1="38.6082" y1="575.1829" x2="-76.7898" y2="398.6098" gradientTransform="matrix(0.85 0 0 -0.85 278.35 728.928)">
		<stop  offset="2.000000e-02" style="stop-color:#CDC9C0"/>
		<stop  offset="0.16" style="stop-color:#ACA89C"/>
		<stop  offset="0.45" style="stop-color:#8B8777"/>
		<stop  offset="0.71" style="stop-color:#B5B1A5"/>
		<stop  offset="0.87" style="stop-color:#DEDBD4"/>
	</linearGradient>
	<path style="fill:url(#SVGID_00000148658328913359984450000011664448253694493112_);" d="M443.3,325.3c0,53.5-84.1,97-187.8,97
		s-187.8-43.4-187.8-97s84.1-97,187.8-97S443.3,271.7,443.3,325.3z"/>
	
		<linearGradient id="SVGID_00000076598038503099887100000008883373078878714043_" gradientUnits="userSpaceOnUse" x1="-133.1314" y1="560.3829" x2="-121.3134" y2="517.6689" gradientTransform="matrix(0.85 0 0 -0.85 278.35 728.928)">
		<stop  offset="0" style="stop-color:#56524B"/>
		<stop  offset="0.56" style="stop-color:#56524B;stop-opacity:0.5"/>
		<stop  offset="0.92" style="stop-color:#56524B;stop-opacity:0"/>
	</linearGradient>
	<path style="opacity:0.2;fill:url(#SVGID_00000076598038503099887100000008883373078878714043_);enable-background:new    ;" d="
		M274.6,237.8c-39.7,14.2-76.4,94.6-109.9,70c-40.3-29.8-80.5-22-95.8,6.6c10.5-48.4,90-86.1,186.6-86.1c2.8,0,5.5,0,8.3,0.1
		C263.7,228.4,274.6,237.8,274.6,237.8z"/>
	
		<linearGradient id="SVGID_00000165204412480129384200000006846948522845928383_" gradientUnits="userSpaceOnUse" x1="112.7486" y1="516.7809" x2="129.6596" y2="496.6709" gradientTransform="matrix(0.85 0 0 -0.85 278.35 728.928)">
		<stop  offset="0" style="stop-color:#56524B"/>
		<stop  offset="0.56" style="stop-color:#56524B;stop-opacity:0.5"/>
		<stop  offset="0.92" style="stop-color:#56524B;stop-opacity:0"/>
	</linearGradient>
	<path style="opacity:0.2;fill:url(#SVGID_00000165204412480129384200000006846948522845928383_);enable-background:new    ;" d="
		M425.8,284.4c-36.8-9.3-56.5,36.1-56.5,36.1l-94.8-82.7c3.8-1.3,7.6-2.1,11.4-2.1c19.8,0,37.1,0.7,52.3,2.5
		C376.7,248,407.7,264.3,425.8,284.4z"/>
	
		<linearGradient id="SVGID_00000181055406150394772040000010281503643020589963_" gradientUnits="userSpaceOnUse" x1="-101.5918" y1="366.5756" x2="-89.1067" y2="412.7686" gradientTransform="matrix(0.85 0 0 -0.85 278.35 728.928)">
		<stop  offset="0" style="stop-color:#56524B"/>
		<stop  offset="0.56" style="stop-color:#56524B;stop-opacity:0.5"/>
		<stop  offset="0.92" style="stop-color:#56524B;stop-opacity:0"/>
	</linearGradient>
	<path style="opacity:0.2;fill:url(#SVGID_00000181055406150394772040000010281503643020589963_);enable-background:new    ;" d="
		M205,418.7c-65.5-9.4-116.6-36.7-132.3-71v0c48.6,45.5,117.9,19.9,82.9-12.6c-25.4-23.6,103.3,12.8,103.3,12.8s95.3-17.8,90.3-0.7
		C327.8,419,221.1,421,205,418.7z"/>
	
		<radialGradient id="SVGID_00000050660801164045640080000000126879264127804550_" cx="-23.1886" cy="638.2353" r="118.794" gradientTransform="matrix(0.85 0 0 -0.4746 278.35 642.7643)" gradientUnits="userSpaceOnUse">
		<stop  offset="0.16" style="stop-color:#1E0F08"/>
		<stop  offset="0.86" style="stop-color:#1D0F07;stop-opacity:0.5"/>
		<stop  offset="1" style="stop-color:#1C0E06;stop-opacity:0"/>
	</radialGradient>
	<path style="opacity:0.5;fill:url(#SVGID_00000050660801164045640080000000126879264127804550_);enable-background:new    ;" d="
		M361.6,342.5c0,29.8-46.4,54-103.6,54s-103.6-24.2-103.6-54c0-29.8,46.4-54,103.6-54S361.6,312.7,361.6,342.5z"/>
	<path class="st7" d="M451.8,329.4c0,57.6-87.9,104.3-196.4,104.3S59.1,387,59.1,329.4C59.1,271.7,147,225,255.5,225
		C363.9,225,451.8,271.7,451.8,329.4L451.8,329.4z"/>
	<path class="st8" d="M103.9,263c36-23.2,90.5-38,151.5-38c64.8,0,122.2,16.7,158,42.4 M397.1,401.6c-35.7,19.8-86,32.1-141.7,32.1
		c-54.2,0-103.3-11.7-138.8-30.6"/>
	
		<radialGradient id="SVGID_00000139293314422510654560000010719762055498999171_" cx="-20.1176" cy="546.5035" r="100" gradientTransform="matrix(0.85 0 0 -0.85 278.35 728.928)" gradientUnits="userSpaceOnUse">
		<stop  offset="0" style="stop-color:#160000"/>
		<stop  offset="0.5" style="stop-color:#2A0F00"/>
		<stop  offset="1" style="stop-color:#3E1E00"/>
	</radialGradient>
	<path style="fill:url(#SVGID_00000139293314422510654560000010719762055498999171_);fill-opacity:0.436;" d="M259.8,300.5
		c-51.4,0-90.3,10-93.9,35.6c-2.9,20.7,33.1,44.3,92.8,44.5c52.7,0.1,88.7-25.6,88.6-41.8C347.1,318.3,311.4,300.6,259.8,300.5z"/>
	<path class="st10" d="M259.8,300.5c-51.4,0-90.3,10-93.9,35.6c-2.9,20.7,33.1,44.3,92.8,44.5c52.7,0.1,88.7-25.6,88.6-41.8
		C347.1,318.3,311.4,300.6,259.8,300.5L259.8,300.5z"/>
</g>
<g>
	
		<linearGradient id="SVGID_00000129911737793555405940000000172382287243608497_" gradientUnits="userSpaceOnUse" x1="83.6409" y1="539.4151" x2="211.6349" y2="508.4831" gradientTransform="matrix(0.85 0 0 -0.85 278.35 728.928)">
		<stop  offset="0" style="stop-color:#625F5A"/>
		<stop  offset="0.2" style="stop-color:#79766D"/>
		<stop  offset="0.41" style="stop-color:#908C80"/>
		<stop  offset="0.73" style="stop-color:#A5A198"/>
		<stop  offset="1" style="stop-color:#BAB7B0"/>
	</linearGradient>
	<path style="fill:url(#SVGID_00000129911737793555405940000000172382287243608497_);" d="M389.1,265.7c1.5,9.4,10.8,2.2,13.5-10.6
		c2.7-13.2,13.7-26.3,32.6-22.5c16.6,3.4,23.8,23.1,13.7,42.5c-10.6,20.3-36.2,37.1-63.9,44.4c-17.7,4.7-18.2,1.3-29,14.5
		c-5.3,6.5-12.6,16.6,6.5,12.8c36.6-7.3,79-28.6,95.2-58.2c19.4-35.6,6.4-70.2-23.5-73.6c-24.5-2.8-36.7,12.5-39.6,17
		C391.6,236.6,387.5,255.7,389.1,265.7L389.1,265.7z"/>
	
		<linearGradient id="SVGID_00000153663514843863577910000002273195683733443473_" gradientUnits="userSpaceOnUse" x1="79.8691" y1="462.4279" x2="177.5131" y2="504.9319" gradientTransform="matrix(0.85 0 0 -0.85 278.35 728.928)">
		<stop  offset="0" style="stop-color:#D1CEC8;stop-opacity:0.7"/>
		<stop  offset="0.58" style="stop-color:#B1ADA7;stop-opacity:0.85"/>
		<stop  offset="1" style="stop-color:#918D86"/>
	</linearGradient>
	<path style="fill:url(#SVGID_00000153663514843863577910000002273195683733443473_);" d="M367.5,334.9c-7.5,8.4,19.3,5.2,19.3,5.2
		c-8.2,2.9-16.4,5.1-24.4,6.7c-19.1,3.8-11.8-6.4-6.5-12.8c10.8-13.2,11.3-9.9,29-14.5c27.8-7.3,53.3-24.1,63.9-44.4
		c1.2-2.4,2.2-4.7,2.9-7.1c-4.5,25.4-24.1,40.8-42.8,50C390.3,327.3,373.3,328.4,367.5,334.9z"/>
	
		<linearGradient id="SVGID_00000039847304547459677140000000761473739055292315_" gradientUnits="userSpaceOnUse" x1="141.6929" y1="549.5718" x2="210.8989" y2="538.0378" gradientTransform="matrix(0.85 0 0 -0.85 278.35 728.928)">
		<stop  offset="0" style="stop-color:#ADABA6"/>
		<stop  offset="0.2" style="stop-color:#CBC9C4"/>
		<stop  offset="0.41" style="stop-color:#E9E7E1"/>
		<stop  offset="0.73" style="stop-color:#EEECE9"/>
		<stop  offset="1" style="stop-color:#F3F2F0"/>
	</linearGradient>
	<path style="fill:url(#SVGID_00000039847304547459677140000000761473739055292315_);" d="M417.6,216c-9.9,3.9-12.6,15.6,17.6,16.6
		c18.8,0.6,25.2,17.1,20.6,38.1c-3.3,15.1-12.4,32.6-26.7,48.2c0,0,6.3-4.1,13.8-11.6c11.7-11.7,26.1-31.7,23.6-57.6
		C462.4,207.3,417.6,216,417.6,216L417.6,216z"/>
	<path class="st7" d="M389.1,265.7c1.5,9.4,10.8,2.2,13.5-10.6c2.7-13.2,13.7-26.3,32.6-22.5c16.6,3.4,23.8,23.1,13.7,42.5
		c-10.6,20.3-36.2,37.1-63.9,44.4c-17.7,4.7-18.2,1.3-29,14.5c-5.3,6.5-12.6,16.6,6.5,12.8c36.6-7.3,79-28.6,95.2-58.2
		c19.4-35.6,6.4-70.2-23.5-73.6c-24.5-2.8-36.7,12.5-39.6,17C391.6,236.6,387.5,255.7,389.1,265.7L389.1,265.7z"/>
	<path class="st14" d="M394.5,232.1c-2.9,4.5-7,23.6-5.4,33.6c1.5,9.4,10.8,2.2,13.5-10.6c2.7-13.2,13.7-26.3,32.6-22.5
		c16.6,3.4,23.8,23.1,13.7,42.5c-10.6,20.3-36.2,37.1-63.9,44.4c-17.7,4.7-18.2,1.3-29,14.5c-5.3,6.5-12.6,16.6,6.5,12.8"/>
	<path class="st15" d="M406.9,220.4c-6.9,4.1-10.9,9.3-12.4,11.7c-2.9,4.5-7,23.6-5.4,33.6c1.5,9.4,10.8,2.2,13.5-10.6
		c2.7-13.2,13.7-26.3,32.6-22.5c16.6,3.4,23.8,23.1,13.7,42.5"/>
	<path class="st16" d="M355.9,334c-5.3,6.5-12.6,16.6,6.5,12.8c22.5-4.5,47.2-14.2,66.6-28"/>
</g>
<radialGradient id="SVGID_00000175317706437700493580000017622871662391597481_" cx="-24.1376" cy="439.6347" r="139.705" fx="-23.7116" fy="439.7327" gradientTransform="matrix(0.85 0 0 -1.4434 278.35 833.5967)" gradientUnits="userSpaceOnUse">
	<stop  offset="0.15" style="stop-color:#7F7A6C"/>
	<stop  offset="0.67" style="stop-color:#B6B4A7"/>
	<stop  offset="1" style="stop-color:#EDEDE2"/>
</radialGradient>
<path style="fill:url(#SVGID_00000175317706437700493580000017622871662391597481_);" d="M372.7,179.8c-22.9-16.1-66.8-27-117.2-27
	s-94.4,10.9-117.2,27h0c-27.7,16.9-28.6,46.3-18.6,84.6c13,49.8,40.2,118,135.9,118c96.8,0,122.9-68.2,135.9-118
	C401.3,226.1,400.4,196.7,372.7,179.8z"/>
<linearGradient id="SVGID_00000088099148092298537940000004807973368524117942_" gradientUnits="userSpaceOnUse" x1="-11.7348" y1="549.3699" x2="77.0692" y2="444.9659" gradientTransform="matrix(0.85 0 0 -0.85 278.35 728.928)">
	<stop  offset="0" style="stop-color:#FFFFFF"/>
	<stop  offset="0.6" style="stop-color:#E3D8CE;stop-opacity:0.65"/>
	<stop  offset="1" style="stop-color:#C7B19D;stop-opacity:0.3"/>
</linearGradient>
<path style="opacity:0.57;fill:url(#SVGID_00000088099148092298537940000004807973368524117942_);enable-background:new    ;" d="
	M391.3,263.1c-13,49.9-39.1,118.3-135.9,118.3c-95.6,0-122.9-68.4-135.8-118.3c-3.6-13.9-5.8-26.6-5.8-38c0-20.1,6.8-36,24.5-46.8
	c22.5-15.9,65.4-26.8,114.8-27.1c-45.2,0.3-84.5,10.6-105.1,25.7c-16.2,10.2-20.7,25.3-20.7,44.3c0,10.8,2,22.8,5.3,36
	c11.9,47.2,35.2,105.2,122.8,105.2c88.7,0,110.9-57.9,122.8-105.2c9.2-36.3,10-64.3-15.4-80.3c-20.6-15-59.8-25.3-105.1-25.7
	c49.4,0.3,92.4,11.2,114.9,27.1C400.4,195.3,401.3,224.8,391.3,263.1z"/>
<radialGradient id="SVGID_00000000214853696520497650000003134570898685645447_" cx="-19.0986" cy="559.7604" r="13.296" gradientTransform="matrix(0.85 0 0 -0.85 278.35 728.928)" gradientUnits="userSpaceOnUse">
	<stop  offset="0" style="stop-color:#DFDCD7"/>
	<stop  offset="0.5" style="stop-color:#EFEDEB"/>
	<stop  offset="1" style="stop-color:#FFFFFF"/>
</radialGradient>
<path style="fill:url(#SVGID_00000000214853696520497650000003134570898685645447_);" d="M393.9,211c0,31.6-62,57.2-138.4,57.2
	S117,242.5,117,211s62-57.2,138.4-57.2S393.9,179.4,393.9,211z"/>
<radialGradient id="SVGID_00000029743856737728266230000003104218317571888301_" cx="-15.0066" cy="618.6855" r="72.4527" gradientTransform="matrix(0.85 0 0 -0.85 278.35 728.928)" gradientUnits="userSpaceOnUse">
	<stop  offset="0" style="stop-color:#B4A9A1"/>
	<stop  offset="0.5" style="stop-color:#A9A199"/>
	<stop  offset="1" style="stop-color:#9E9A91"/>
</radialGradient>
<path style="fill:url(#SVGID_00000029743856737728266230000003104218317571888301_);" d="M382.3,203c0,28.6-56.8,51.8-126.8,51.8
	S128.6,231.7,128.6,203s56.8-51.8,126.8-51.8S382.3,174.4,382.3,203z"/>
<linearGradient id="SVGID_00000045597736292796221350000017340143502959531432_" gradientUnits="userSpaceOnUse" x1="-26.9281" y1="632.7605" x2="-26.9281" y2="609.5065" gradientTransform="matrix(0.85 0 0 -0.85 278.35 728.928)">
	<stop  offset="0.18" style="stop-color:#617435"/>
	<stop  offset="0.6" style="stop-color:#586D2A"/>
	<stop  offset="1" style="stop-color:#4F651F"/>
</linearGradient>
<path style="fill:url(#SVGID_00000045597736292796221350000017340143502959531432_);" d="M372.7,226.3
	c-16.4,19.5-62.2,29.4-117.3,29.4s-100.9-9.8-117.3-29.4c1-8.5,9.6-16.9,23.5-23.9c21.3-10.8,55.3-18.4,93.8-18.4
	c30.4,0,57.8,4.7,78.6,12C356.8,204,371.4,215,372.7,226.3z"/>
<path class="st22" d="M360,231.6c-20.5,15.4-59.7,25.8-104.6,25.8c-44.9,0-84-10.4-104.6-25.8c3.5-6.4,10.9-12.3,21-17.3
	c6.6-3.2,14.4-6.1,23.1-8.4c17.2-4.6,38-7.3,60.4-7.3c19.2,0,37.2,2,52.8,5.4c7.7,1.7,14.8,3.8,21.2,6.2
	C344.6,215.9,355.5,223.3,360,231.6L360,231.6z"/>
<radialGradient id="SVGID_00000132051115763143503740000011280171630179118994_" cx="-25.0296" cy="1064.9565" r="91.639" gradientTransform="matrix(0.85 0 0 -0.301 278.35 553.8255)" gradientUnits="userSpaceOnUse">
	<stop  offset="0.11" style="stop-color:#B0C780"/>
	<stop  offset="0.7" style="stop-color:#A2BD6A"/>
	<stop  offset="1" style="stop-color:#94B354"/>
</radialGradient>
<path style="fill:url(#SVGID_00000132051115763143503740000011280171630179118994_);" d="M360,231.6
	c-20.5,15.4-59.7,25.8-104.6,25.8s-84-10.4-104.6-25.8c3.5-6.4,10.9-12.3,21-17.3c6.6-3.2,14.4-6.1,23.1-8.4
	c17.2-4.6,38-7.3,60.4-7.3c19.2,0,37.2,2,52.8,5.4c7.7,1.7,14.8,3.8,21.2,6.2C344.6,215.9,355.5,223.3,360,231.6z"/>
<path class="st24" d="M382.3,206c0,27-56.8,48.9-126.8,48.9c-70,0-126.8-21.9-126.8-48.9c0-27,56.8-48.9,126.8-48.9
	C325.5,157.1,382.3,179,382.3,206z"/>
<path class="st25" d="M135,221.2c-4.1-4.8-6.3-9.9-6.3-15.3c0-27,56.8-48.9,126.8-48.9c70,0,126.8,21.9,126.8,48.9
	c0,5.6-2.4,11-6.9,16"/>
<path class="st7" d="M372.7,178.4c-22.9-16.2-66.8-27.1-117.2-27.1s-94.4,10.9-117.2,27.1h0c-27.7,16.9-28.6,46.4-18.6,84.8
	c13,49.9,40.2,118.3,135.9,118.3c96.8,0,122.9-68.4,135.9-118.3C401.3,224.8,400.4,195.3,372.7,178.4L372.7,178.4z"/>
<path class="st15" d="M164.7,349.4c20.7,18.3,48.9,32,90.8,32c56.6,0,89-23.4,108.8-52.8c14-20.9,21.7-44.8,27.1-65.5
	c3.6-13.9,5.8-26.7,5.8-38.1"/>
<g class="st26">
	
		<linearGradient id="SVGID_00000065034861067916680930000015972577451943432868_" gradientUnits="userSpaceOnUse" x1="-16.1378" y1="429.9208" x2="-28.9878" y2="644.3468" gradientTransform="matrix(0.8334 0 0 -0.8334 248.4641 602.4738)">
		<stop  offset="0" style="stop-color:#FFFFFF;stop-opacity:0.8"/>
		<stop  offset="0.67" style="stop-color:#FFFFFF;stop-opacity:0.4"/>
		<stop  offset="1" style="stop-color:#FFFFFF;stop-opacity:0"/>
	</linearGradient>
	<path style="fill:url(#SVGID_00000065034861067916680930000015972577451943432868_);" d="M261.1,214.2c-11-3.7-4-14.8-6.5-29
		c-2.5-14.2-15.7-17.4-27.8-25.3c-12.1-7.9-16.9-13.2-5.8-24.2s-1.1-14.2-9.5-22.1s-3.6-12.5-15.2-20.5c-14-9.7,18.5-31.1,43.6-18.4
		c13.4,6.8,3.2,23.1-5.7,23.6c-8,0.5-11.3-11.6-14.8-6.8c-4.4,6.2-0.1,19.5,15.2,31.1s-5.8,19.3-5.8,24.7c0,5.4,28.4,17,31.1,27
		s-1.1,29.5,0,34.8C261.1,214.2,272.1,217.9,261.1,214.2z"/>
	
		<linearGradient id="SVGID_00000060742781803337283810000016448525982825471413_" gradientUnits="userSpaceOnUse" x1="-19.6998" y1="424.3986" x2="-23.3098" y2="622.1906" gradientTransform="matrix(0.8334 0 0 -0.8334 282.8361 602.0377)">
		<stop  offset="0" style="stop-color:#FFFFFF"/>
		<stop  offset="0.67" style="stop-color:#FFFFFF;stop-opacity:0.5"/>
		<stop  offset="1" style="stop-color:#FFFFFF;stop-opacity:0"/>
	</linearGradient>
	<path style="fill:url(#SVGID_00000060742781803337283810000016448525982825471413_);" d="M269.1,191.8c-1,2.3,4-2,6.4-7.3
		c2.2-4.7-4.8-6.5,6.2-13c9.6-5.6-3.6-9.9-16.5-19.1c-12.9-9.2,4.7-18.7-5.3-29.8s4.4-17.6,12.5-14.5c8.1,3.1-9.7,9-1.6,11.1
		c16.4,4.2,29.6-24.1,2.4-26c-27.2-1.9-41.5,13.1-31.1,22.7c10.3,9.6,17.7,18.4,6.7,26.6c-11.1,8.1,8.8,15,18.4,19.2
		c9.6,4.2,8,11.4,0.8,13.8S274,180,269.1,191.8z"/>
	
		<linearGradient id="SVGID_00000046332370354439738980000006353059888461207968_" gradientUnits="userSpaceOnUse" x1="-12.7835" y1="464.6412" x2="-24.8935" y2="575.4332" gradientTransform="matrix(0.8334 0 0 -0.8334 215.9431 594.4497)">
		<stop  offset="0" style="stop-color:#FFFFFF"/>
		<stop  offset="0.67" style="stop-color:#FFFFFF;stop-opacity:0.5"/>
		<stop  offset="1" style="stop-color:#FFFFFF;stop-opacity:0"/>
	</linearGradient>
	<path style="fill:url(#SVGID_00000046332370354439738980000006353059888461207968_);" d="M180.3,131.6c-1.7-6.7,7.9-15.5,19.9-13.6
		c12.1,1.9,19.8,18,7,21.6c-12.8,3.6-4.9,8.9-6.7,12.4s-16.3-8.5-6.7-16.5c9.6-8.1-2.6-8.2-7.3-4.8
		C183.6,132.7,181.9,137.9,180.3,131.6z"/>
</g>
</svg>
