<?xml version="1.0" encoding="utf-8"?>
<!-- meow :3  -->
<svg version="1.1" id="Слой_1" xmlns="http://www.w3.org/2000/svg" xmlns:xlink="http://www.w3.org/1999/xlink" x="0px" y="0px"
	 viewBox="0 0 512 512" style="enable-background:new 0 0 512 512;" xml:space="preserve">
<style type="text/css">
	.st0{fill:none;}
	.st1{fill:url(#SVGID_1_);}
	.st2{fill:url(#SVGID_00000027564653274450921570000003486201239685931450_);}
	.st3{fill:url(#SVGID_00000107561934613395807980000016263613449066853304_);}
	.st4{fill:url(#SVGID_00000044875801867624717150000004226295842422200450_);}
	.st5{fill:url(#SVGID_00000080200586761033878560000009250457265419224996_);}
	.st6{fill:url(#SVGID_00000049180882389574242040000006050486896494756249_);}
	.st7{fill:url(#SVGID_00000105385465466876415470000013335876532263767738_);}
	.st8{fill:url(#SVGID_00000119092369261398343050000011517240811311980975_);}
	.st9{fill:url(#SVGID_00000148620456950569961000000007690926677462174593_);}
	.st10{fill:url(#SVGID_00000039831821131024385040000008881095236602091956_);}
	.st11{fill:url(#SVGID_00000138557566321204631350000003081376507925556363_);}
	.st12{fill:url(#SVGID_00000021811125870968519240000013832702309503246226_);}
	.st13{opacity:0.5;fill:#3BB4FF;enable-background:new    ;}
	.st14{opacity:0.6;fill:#3BB4FF;enable-background:new    ;}
	.st15{fill:#00B4FF;}
	.st16{fill:url(#SVGID_00000060014077049364160450000017975801661790626225_);}
	.st17{fill:none;stroke:#DCF1FF;stroke-width:7.64;stroke-linecap:round;stroke-linejoin:round;}
	.st18{fill:none;stroke:#00DBFF;stroke-width:7.64;stroke-linecap:round;stroke-linejoin:round;}
	.st19{fill:none;stroke:#3BB4FF;stroke-width:7.64;stroke-linecap:round;stroke-linejoin:round;}
</style>
<rect y="0" class="st0" width="512" height="512"/>
<g>
	
		<radialGradient id="SVGID_1_" cx="54.6561" cy="545.085" r="216.765" gradientTransform="matrix(0.9203 -0.2552 -0.2552 -0.9203 344.8143 771.5725)" gradientUnits="userSpaceOnUse">
		<stop  offset="0" style="stop-color:#B8FFFF"/>
		<stop  offset="0.67" style="stop-color:#5CD4FF"/>
		<stop  offset="1" style="stop-color:#00A9FF"/>
	</radialGradient>
	<path class="st1" d="M272.4,192.7c-18.4-4.7-21.5-41.8-20.4-50.7c1.9-15.3,43.7-45.4,32.9-80.2c-22.8-0.4-40.6,19.2-52,39.1
		c-6.9-37.5-19.5-48.8-35.2-55.1c-10.2,13.5-15.2,29.6-1.8,65.3c-20-11.2-45.3-18.8-64.7-6.7c8.7,35.4,60,39.7,69.5,51.8
		c5.5,7,21.9,40.4,8.6,54c-6.6,6.8,26.9,51.3,46.7,45.9S281.6,195,272.4,192.7z"/>
	
		<radialGradient id="SVGID_00000168117549190595289290000007746641862729847996_" cx="53.6561" cy="690.085" r="83.9605" gradientTransform="matrix(0.9203 -0.2552 -0.2552 -0.9203 344.8143 771.5725)" gradientUnits="userSpaceOnUse">
		<stop  offset="0" style="stop-color:#FFFFFF"/>
		<stop  offset="0.3" style="stop-color:#FFFFFF;stop-opacity:0.5"/>
		<stop  offset="1" style="stop-color:#FFFFFF;stop-opacity:0"/>
	</radialGradient>
	<path style="fill:url(#SVGID_00000168117549190595289290000007746641862729847996_);" d="M272.4,192.7
		c-18.4-4.7-21.5-41.8-20.4-50.7c1.9-15.3,43.7-45.4,32.9-80.2c-22.8-0.4-40.6,19.2-52,39.1c-6.9-37.5-19.5-48.8-35.2-55.1
		c-10.2,13.5-15.2,29.6-1.8,65.3c-20-11.2-45.3-18.8-64.7-6.7c8.7,35.4,60,39.7,69.5,51.8c5.5,7,21.9,40.4,8.6,54
		c-6.6,6.8,26.9,51.3,46.7,45.9S281.6,195,272.4,192.7z"/>
</g>
<g>
	
		<radialGradient id="SVGID_00000095310487672557756850000009969839715475873461_" cx="285.8514" cy="480.1287" r="216.765" gradientTransform="matrix(0.2391 -0.9246 -0.9246 -0.2391 631.5667 635.0977)" gradientUnits="userSpaceOnUse">
		<stop  offset="0" style="stop-color:#B8FFFF"/>
		<stop  offset="0.67" style="stop-color:#5CD4FF"/>
		<stop  offset="1" style="stop-color:#00A9FF"/>
	</radialGradient>
	<path style="fill:url(#SVGID_00000095310487672557756850000009969839715475873461_);" d="M209.3,210.1c-13.3,13.5-47-2.3-54.1-7.7
		c-12.3-9.3-17.5-60.5-53-68.6c-11.7,19.6-3.7,44.7,7.8,64.6c-35.9-12.8-52-7.5-65.3,2.9c6.6,15.6,18.1,27.9,55.7,34.2
		c-19.7,11.8-38.9,29.8-38.2,52.7c35,10.2,64.3-32.1,79.6-34.3c8.8-1.3,46,1.3,51,19.5c2.5,9.1,57.9,2.3,63-17.5
		S216,203.4,209.3,210.1z"/>
	
		<radialGradient id="SVGID_00000103258194606598169900000000720397277460335291_" cx="284.8514" cy="625.1287" r="83.9605" gradientTransform="matrix(0.2391 -0.9246 -0.9246 -0.2391 631.5667 635.0977)" gradientUnits="userSpaceOnUse">
		<stop  offset="0" style="stop-color:#FFFFFF"/>
		<stop  offset="0.3" style="stop-color:#FFFFFF;stop-opacity:0.5"/>
		<stop  offset="1" style="stop-color:#FFFFFF;stop-opacity:0"/>
	</radialGradient>
	<path style="fill:url(#SVGID_00000103258194606598169900000000720397277460335291_);" d="M209.3,210.1c-13.3,13.5-47-2.3-54.1-7.7
		c-12.3-9.3-17.5-60.5-53-68.6c-11.7,19.6-3.7,44.7,7.8,64.6c-35.9-12.8-52-7.5-65.3,2.9c6.6,15.6,18.1,27.9,55.7,34.2
		c-19.7,11.8-38.9,29.8-38.2,52.7c35,10.2,64.3-32.1,79.6-34.3c8.8-1.3,46,1.3,51,19.5c2.5,9.1,57.9,2.3,63-17.5
		S216,203.4,209.3,210.1z"/>
</g>
<g>
	
		<radialGradient id="SVGID_00000119819581545004476940000002526037970794392194_" cx="-117.1953" cy="377.342" r="216.765" gradientTransform="matrix(0.6812 0.6694 0.6694 -0.6812 83.2474 591.4752)" gradientUnits="userSpaceOnUse">
		<stop  offset="0" style="stop-color:#B8FFFF"/>
		<stop  offset="0.67" style="stop-color:#5CD4FF"/>
		<stop  offset="1" style="stop-color:#00A9FF"/>
	</radialGradient>
	<path style="fill:url(#SVGID_00000119819581545004476940000002526037970794392194_);" d="M319,238.5c-5.1-18.3,25.5-39.6,33.7-43
		c14.2-6,61.2,15.1,85.9-11.6c-11.1-20-36.9-25.5-59.9-25.5c29-24.7,32.5-41.2,30.1-58c-16.8-2.1-33.3,1.7-57.5,31.1
		c-0.4-22.9-6.4-48.6-26.5-59.4c-26.3,25.2-4.4,71.8-10.1,86.1c-3.3,8.3-24.1,39.2-42.4,34.4c-9.2-2.4-31,49-16.4,63.3
		C270.6,270.3,321.6,247.7,319,238.5z"/>
	
		<radialGradient id="SVGID_00000006703553075186389290000008013664126811576252_" cx="-118.1953" cy="522.342" r="83.9605" gradientTransform="matrix(0.6812 0.6694 0.6694 -0.6812 83.2474 591.4752)" gradientUnits="userSpaceOnUse">
		<stop  offset="0" style="stop-color:#FFFFFF"/>
		<stop  offset="0.3" style="stop-color:#FFFFFF;stop-opacity:0.5"/>
		<stop  offset="1" style="stop-color:#FFFFFF;stop-opacity:0"/>
	</radialGradient>
	<path style="fill:url(#SVGID_00000006703553075186389290000008013664126811576252_);" d="M319,238.5c-5.1-18.3,25.5-39.6,33.7-43
		c14.2-6,61.2,15.1,85.9-11.6c-11.1-20-36.9-25.5-59.9-25.5c29-24.7,32.5-41.2,30.1-58c-16.8-2.1-33.3,1.7-57.5,31.1
		c-0.4-22.9-6.4-48.6-26.5-59.4c-26.3,25.2-4.4,71.8-10.1,86.1c-3.3,8.3-24.1,39.2-42.4,34.4c-9.2-2.4-31,49-16.4,63.3
		C270.6,270.3,321.6,247.7,319,238.5z"/>
</g>
<g>
	
		<radialGradient id="SVGID_00000089532462022490337800000010583662586955832718_" cx="345.1953" cy="247.4296" r="216.765" gradientTransform="matrix(-0.6812 -0.6694 -0.6694 0.6812 656.7523 318.5253)" gradientUnits="userSpaceOnUse">
		<stop  offset="0" style="stop-color:#B8FFFF"/>
		<stop  offset="0.67" style="stop-color:#5CD4FF"/>
		<stop  offset="1" style="stop-color:#00A9FF"/>
	</radialGradient>
	<path style="fill:url(#SVGID_00000089532462022490337800000010583662586955832718_);" d="M193,273.5c5.1,18.3-25.5,39.6-33.7,43
		c-14.2,6-61.2-15.1-85.9,11.6c11.1,20,36.9,25.5,59.9,25.5c-29,24.7-32.5,41.2-30.1,58c16.8,2.1,33.3-1.7,57.5-31.1
		c0.4,22.9,6.4,48.6,26.5,59.4c26.3-25.2,4.4-71.8,10.1-86.1c3.3-8.3,24.1-39.2,42.4-34.4c9.2,2.4,31-49,16.4-63.3
		S190.4,264.3,193,273.5z"/>
	
		<radialGradient id="SVGID_00000156569611702361720610000017771691210822089094_" cx="344.1953" cy="392.4296" r="83.9605" gradientTransform="matrix(-0.6812 -0.6694 -0.6694 0.6812 656.7523 318.5253)" gradientUnits="userSpaceOnUse">
		<stop  offset="0" style="stop-color:#FFFFFF"/>
		<stop  offset="0.3" style="stop-color:#FFFFFF;stop-opacity:0.5"/>
		<stop  offset="1" style="stop-color:#FFFFFF;stop-opacity:0"/>
	</radialGradient>
	<path style="fill:url(#SVGID_00000156569611702361720610000017771691210822089094_);" d="M193,273.5c5.1,18.3-25.5,39.6-33.7,43
		c-14.2,6-61.2-15.1-85.9,11.6c11.1,20,36.9,25.5,59.9,25.5c-29,24.7-32.5,41.2-30.1,58c16.8,2.1,33.3-1.7,57.5-31.1
		c0.4,22.9,6.4,48.6,26.5,59.4c26.3-25.2,4.4-71.8,10.1-86.1c3.3-8.3,24.1-39.2,42.4-34.4c9.2,2.4,31-49,16.4-63.3
		S190.4,264.3,193,273.5z"/>
</g>
<g>
	
		<radialGradient id="SVGID_00000141424205026732020990000018420670768492494763_" cx="-57.8514" cy="144.6429" r="216.765" gradientTransform="matrix(-0.2391 0.9246 0.9246 0.2391 108.4329 274.9019)" gradientUnits="userSpaceOnUse">
		<stop  offset="0" style="stop-color:#B8FFFF"/>
		<stop  offset="0.67" style="stop-color:#5CD4FF"/>
		<stop  offset="1" style="stop-color:#00A9FF"/>
	</radialGradient>
	<path style="fill:url(#SVGID_00000141424205026732020990000018420670768492494763_);" d="M302.7,301.9c13.3-13.5,47,2.3,54.1,7.7
		c12.3,9.3,17.5,60.5,53,68.6c11.7-19.6,3.7-44.7-7.8-64.6c35.9,12.8,52,7.5,65.3-2.9c-6.6-15.6-18.1-27.9-55.7-34.2
		c19.7-11.8,38.9-29.8,38.2-52.7c-35-10.2-64.3,32.1-79.6,34.3c-8.8,1.3-46-1.3-51-19.5c-2.5-9.1-57.9-2.3-63,17.5
		C250.9,275.8,296,308.6,302.7,301.9z"/>
	
		<radialGradient id="SVGID_00000090977467423619210700000003466536589792375945_" cx="-58.8514" cy="289.6429" r="83.9605" gradientTransform="matrix(-0.2391 0.9246 0.9246 0.2391 108.4329 274.9019)" gradientUnits="userSpaceOnUse">
		<stop  offset="0" style="stop-color:#FFFFFF"/>
		<stop  offset="0.3" style="stop-color:#FFFFFF;stop-opacity:0.5"/>
		<stop  offset="1" style="stop-color:#FFFFFF;stop-opacity:0"/>
	</radialGradient>
	<path style="fill:url(#SVGID_00000090977467423619210700000003466536589792375945_);" d="M302.7,301.9c13.3-13.5,47,2.3,54.1,7.7
		c12.3,9.3,17.5,60.5,53,68.6c11.7-19.6,3.7-44.7-7.8-64.6c35.9,12.8,52,7.5,65.3-2.9c-6.6-15.6-18.1-27.9-55.7-34.2
		c19.7-11.8,38.9-29.8,38.2-52.7c-35-10.2-64.3,32.1-79.6,34.3c-8.8,1.3-46-1.3-51-19.5c-2.5-9.1-57.9-2.3-63,17.5
		C250.9,275.8,296,308.6,302.7,301.9z"/>
</g>
<g>
	
		<radialGradient id="SVGID_00000170974169143081736970000015850061425665091469_" cx="173.3439" cy="79.6867" r="216.765" gradientTransform="matrix(-0.9203 0.2552 0.2552 0.9203 395.1857 138.4273)" gradientUnits="userSpaceOnUse">
		<stop  offset="0" style="stop-color:#B8FFFF"/>
		<stop  offset="0.67" style="stop-color:#5CD4FF"/>
		<stop  offset="1" style="stop-color:#00A9FF"/>
	</radialGradient>
	<path style="fill:url(#SVGID_00000170974169143081736970000015850061425665091469_);" d="M239.6,319.3
		c18.4,4.7,21.5,41.8,20.4,50.7c-1.9,15.3-43.7,45.4-32.9,80.2c22.8,0.4,40.6-19.2,52-39.1c6.9,37.5,19.5,48.8,35.2,55.1
		c10.2-13.5,15.2-29.6,1.8-65.3c20,11.2,45.3,18.8,64.7,6.7c-8.7-35.4-60-39.7-69.5-51.8c-5.5-7-21.9-40.4-8.6-54
		c6.6-6.8-26.9-51.3-46.7-45.9S230.4,317,239.6,319.3z"/>
	
		<radialGradient id="SVGID_00000119115605561508935190000015032874161172308622_" cx="172.3439" cy="224.6867" r="83.9605" gradientTransform="matrix(-0.9203 0.2552 0.2552 0.9203 395.1857 138.4273)" gradientUnits="userSpaceOnUse">
		<stop  offset="0" style="stop-color:#FFFFFF"/>
		<stop  offset="0.3" style="stop-color:#FFFFFF;stop-opacity:0.5"/>
		<stop  offset="1" style="stop-color:#FFFFFF;stop-opacity:0"/>
	</radialGradient>
	<path style="fill:url(#SVGID_00000119115605561508935190000015032874161172308622_);" d="M239.6,319.3
		c18.4,4.7,21.5,41.8,20.4,50.7c-1.9,15.3-43.7,45.4-32.9,80.2c22.8,0.4,40.6-19.2,52-39.1c6.9,37.5,19.5,48.8,35.2,55.1
		c10.2-13.5,15.2-29.6,1.8-65.3c20,11.2,45.3,18.8,64.7,6.7c-8.7-35.4-60-39.7-69.5-51.8c-5.5-7-21.9-40.4-8.6-54
		c6.6-6.8-26.9-51.3-46.7-45.9S230.4,317,239.6,319.3z"/>
</g>
<path class="st13" d="M256,256c0,0-14.2-49.8-21.4-74.6c-7.3-24.9-35.1-34.4-51.1-34.9c7.9,3.2,14.4,6.1,17.2,9.7
	c5.5,7,21.9,40.4,8.6,54L256,256z"/>
<path class="st13" d="M256,256c0,0-50.2-12.6-75.4-18.8s-47.3,13.2-55.7,26.8c6.8-5.3,12.5-9.4,17-10.1c8.8-1.3,46,1.3,51,19.5
	L256,256z"/>
<path class="st13" d="M256,256c0,0,36.5-36.7,54.9-54.9s47.4-13.1,61.6-5.7c-8.5-1-15.6-1.6-19.8,0.1c-8.2,3.4-38.7,24.8-33.7,43
	L256,256z"/>
<path class="st14" d="M256,256c0,0-36,37.2-53.9,55.9c-17.9,18.7-12.3,47.6-4.7,61.7c-1.2-8.5-1.9-15.5-0.2-19.8
	c3.3-8.3,24.1-39.2,42.4-34.4L256,256z"/>
<path class="st14" d="M256,256c0,0,50,13.3,75,20.1c25,6.8,35,34.5,35.7,50.5c-3.4-7.9-6.4-14.3-10-17c-7.1-5.4-40.8-21.2-54.1-7.7
	L256,256z"/>
<g>
	<path class="st14" d="M256,256c0,0,14.2,49.8,21.4,74.6c7.3,24.9,35.1,34.4,51.1,34.9c-7.9-3.2-14.4-6.1-17.2-9.7
		c-5.5-7-21.9-40.4-8.6-54L256,256z M256,256c0,0,13.5,50,20.1,75c6.6,25-12.4,47.6-25.8,56.2c5.1-6.8,9.2-12.7,9.8-17.2
		c1.1-8.8-2.1-45.9-20.4-50.7L256,256z"/>
</g>
<path class="st15" d="M231.3,166.8c1.7,10,14.3,92.1,24.7,89.2C266.5,253.1,235,176.3,231.3,166.8z"/>
<path class="st15" d="M166.4,232.8c9.5,3.6,86.9,33.7,89.6,23.2C258.7,245.5,176.5,234.3,166.4,232.8z"/>
<path class="st15" d="M320.9,190c-7.9,6.5-72.6,58.4-64.9,66S314.5,198,320.9,190z"/>
<path class="st15" d="M345.6,279.2c-9.5-3.6-86.9-33.7-89.6-23.2S335.5,277.7,345.6,279.2z"/>
<path class="st15" d="M191.1,322c7.9-6.5,72.6-58.4,64.9-66C248.2,248.4,197.5,314,191.1,322z"/>
<path class="st15" d="M280.7,345.2c-1.7-10-14.3-92.1-24.7-89.2C245.5,258.9,277,335.7,280.7,345.2z"/>
<radialGradient id="SVGID_00000145018882708869631180000007435161050811851652_" cx="55.8721" cy="544.6559" r="60.213" gradientTransform="matrix(0.9203 -0.2552 -0.2552 -0.9203 345.0862 771.7065)" gradientUnits="userSpaceOnUse">
	<stop  offset="0" style="stop-color:#FFFFFF"/>
	<stop  offset="0.78" style="stop-color:#EDF8FF;stop-opacity:0.5"/>
	<stop  offset="1" style="stop-color:#DCF1FF;stop-opacity:0"/>
</radialGradient>
<path style="fill:url(#SVGID_00000145018882708869631180000007435161050811851652_);" d="M286.9,251.7c16.6-5.1,26.5-12.6,26.5-12.6
	c-10.1-0.4-19.5,1.2-27.7,3.6c10.4-11.9,9.9-26.9,9.9-26.9c-12.8,0.6-21.4,5.2-27.1,11.2c3.8-16.3,2.5-28.1,2.5-28.1
	c-5.7,8.6-9.1,17.8-11.3,26.2c-4.9-15.2-18.3-22.5-18.3-22.5c-6,11.3-6.3,21-4.1,29c-12.2-11.3-23.1-15.9-23.1-15.9
	c4.7,9.2,11,16.8,17.3,22.8c-15.8-3.6-28.9,4.4-28.9,4.4c6.7,10.7,14.7,15.9,22.6,18.1c-15.3,5.1-24.4,11.9-24.4,11.9
	c10.6,0.5,20.5-1.4,29-4c-11.9,12.1-11.3,28.5-11.3,28.5c12.2-0.6,20.5-4.8,26.2-10.2c-3.4,15.5-2.1,26.6-2.1,26.6
	c5.8-8.9,9.3-18.4,11.4-27c4.6,16.1,18.7,23.8,18.7,23.8c6-11.5,6.3-21.3,4.1-29.3c12.3,11.4,23.3,16.1,23.3,16.1
	c-4.7-9.1-10.8-16.6-17.1-22.6c15.6,3.4,28.6-4.5,28.6-4.5C304.2,258.7,295.4,253.5,286.9,251.7z"/>
<g>
	<path class="st17" d="M252.4,156.7c-4.8-6.1-4.8-12.4-4.3-16.3c2.2-17.5,35.7-42.3,31.5-71.6c-25.2,3.6-34.7,29.5-43,36.8
		c-3.7,3.2-7,2.3-9.1-2c-5.2-10.3-4.8-37.9-27.4-49.4c-13.3,21.2,0.7,44.3,1.9,56c0.6,5.5-2.1,8.2-8,6.7c-11.3-2.9-32-18.6-54.6-9.1
		c11.5,27.2,53,31.2,63.9,45.1c2.5,3.2,5.7,8.5,4.7,16.2"/>
</g>
<g>
	<path class="st17" d="M168.2,209.5c-7.7,1.1-13.1-2-16.3-4.5c-14.1-10.7-18.8-52.1-46.2-63.1c-9.4,23.6,8.2,44.8,10.4,55.7
		c0.9,4.8-1.5,7.2-6.3,6.9c-11.5-0.6-35.2-14.8-56.5-1c11.8,22.1,38.8,21.5,49.5,26.3c5.1,2.3,6.1,5.9,1.8,10.3
		c-8.1,8.3-32.1,18.4-35.2,42.7c29.3,3.7,53.5-30.2,71-32.8c4-0.6,10.2-0.7,16.4,4"/>
</g>
<g>
	<path class="st17" d="M340.2,203.2c2.9-7.2,8.3-10.3,12-11.9c16.3-6.8,54.5,9.8,77.8-8.5c-15.7-20-42.9-15.3-53.4-18.9
		c-4.6-1.6-5.5-4.9-2.8-8.9c6.3-9.7,30.4-23.1,29.1-48.5c-25-0.9-38,22.8-47.5,29.7c-4.5,3.3-8.1,2.3-9.8-3.6
		c-3.1-11.2,0.1-37-19.4-51.8c-17.8,23.6-0.6,61.5-7.1,77.9c-1.5,3.7-4.5,9.2-11.7,12.2"/>
</g>
<g>
	<path class="st17" d="M171.8,308.8c-2.9,7.2-8.3,10.3-12,11.9c-16.3,6.8-54.5-9.8-77.8,8.5c15.7,20,42.9,15.3,53.4,18.9
		c4.6,1.6,5.5,4.9,2.8,8.9c-6.3,9.7-30.4,23.1-29.1,48.5c25,0.9,38-22.8,47.5-29.7c4.5-3.3,8.1-2.3,9.8,3.6
		c3.1,11.2-0.1,37,19.4,51.8c17.8-23.6,0.6-61.5,7.1-77.9c1.5-3.7,4.5-9.2,11.7-12.2"/>
</g>
<g>
	<path class="st17" d="M343.8,302.5c7.7-1.1,13.1,2,16.3,4.5c14.1,10.7,18.8,52.1,46.2,63.1c9.4-23.6-8.2-44.8-10.4-55.7
		c-0.9-4.8,1.5-7.2,6.3-6.9c11.5,0.6,35.2,14.8,56.5,1c-11.8-22.1-38.8-21.5-49.5-26.3c-5.1-2.3-6.1-5.9-1.8-10.3
		c8.1-8.3,32.1-18.4,35.2-42.7c-29.3-3.7-53.5,30.2-71,32.8c-4,0.6-10.2,0.7-16.4-4"/>
</g>
<g>
	<path class="st17" d="M259.6,355.3c4.8,6.1,4.8,12.4,4.3,16.3c-2.2,17.5-35.7,42.3-31.5,71.6c25.2-3.6,34.7-29.5,43-36.8
		c3.7-3.2,7-2.3,9.2,2c5.2,10.3,4.8,37.9,27.4,49.4c13.3-21.2-0.7-44.3-1.9-56c-0.6-5.5,2.1-8.2,8-6.7c11.3,2.9,32,18.6,54.6,9.1
		c-11.5-27.2-53-31.2-63.9-45.1c-2.5-3.2-5.7-8.5-4.7-16.2"/>
</g>
<g>
	<path class="st18" d="M272.4,192.7c-18.4-4.7-21.5-41.9-20.4-50.7c1.9-15.3,43.7-45.4,32.9-80.2c-22.8-0.4-40.6,19.2-52,39.1
		c-6.9-37.5-19.5-48.8-35.2-55.1c-10.2,13.5-15.2,29.6-1.8,65.3c-20-11.2-45.3-18.8-64.7-6.7c8.7,35.4,60,39.7,69.5,51.8
		c5.5,7,21.9,40.4,8.6,54"/>
</g>
<g>
	<path class="st18" d="M209.3,210.1c-13.3,13.5-47-2.3-54.1-7.7c-12.3-9.3-17.5-60.5-53-68.6c-11.7,19.6-3.7,44.7,7.8,64.6
		c-35.9-12.8-52-7.5-65.3,2.9c6.6,15.6,18.1,28,55.7,34.2c-19.7,11.8-38.9,29.9-38.2,52.7c35,10.1,64.3-32.1,79.6-34.3
		c8.8-1.3,46,1.3,51,19.5"/>
</g>
<g>
	<path class="st18" d="M319,238.5c-5.1-18.3,25.5-39.6,33.7-43c14.2-6,61.2,15.1,85.9-11.6c-11.1-20-36.9-25.5-59.9-25.5
		c29-24.7,32.5-41.2,30.1-58c-16.8-2.1-33.3,1.7-57.5,31.1c-0.4-22.9-6.4-48.6-26.5-59.4c-26.3,25.2-4.4,71.8-10.1,86.1
		c-3.3,8.3-24.1,39.2-42.4,34.4"/>
</g>
<g>
	<path class="st18" d="M193,273.5c5.1,18.3-25.5,39.6-33.7,43c-14.2,6-61.2-15.1-85.9,11.6c11.1,20,36.9,25.5,59.9,25.5
		c-29,24.7-32.5,41.2-30.1,58c16.8,2.1,33.3-1.7,57.4-31.1c0.4,22.9,6.4,48.6,26.5,59.4c26.3-25.2,4.4-71.8,10.1-86.1
		c3.3-8.3,24.1-39.2,42.4-34.4"/>
</g>
<g>
	<path class="st18" d="M302.7,301.9c13.3-13.5,47,2.3,54.1,7.7c12.3,9.3,17.5,60.5,53,68.6c11.7-19.6,3.7-44.7-7.8-64.6
		c35.9,12.8,52,7.5,65.3-2.9c-6.6-15.6-18.1-28-55.7-34.2c19.7-11.8,38.9-29.9,38.2-52.7c-35-10.1-64.3,32.1-79.6,34.3
		c-8.8,1.3-46-1.3-51-19.5"/>
</g>
<g>
	<path class="st18" d="M239.6,319.3c18.3,4.7,21.5,41.8,20.4,50.7c-1.9,15.3-43.7,45.4-32.9,80.2c22.9,0.4,40.6-19.2,52-39.1
		c6.9,37.5,19.5,48.8,35.2,55.1c10.2-13.5,15.2-29.6,1.8-65.3c20,11.2,45.3,18.8,64.7,6.7c-8.7-35.4-60-39.7-69.5-51.8
		c-5.5-7-21.9-40.4-8.6-54"/>
</g>
<g>
	<path class="st19" d="M209.3,210.1c13.3-13.5-3.1-47-8.6-54c-9.5-12.1-60.8-16.4-69.5-51.8l0,0 M272.4,192.7
		c-18.4-4.7-21.5-41.8-20.4-50.7c1.9-15.3,43.7-45.4,32.9-80.2l0,0"/>
</g>
<g>
	<path class="st19" d="M193,273.5c-5.1-18.3-42.2-20.8-51-19.5c-15.3,2.2-44.6,44.5-79.6,34.3l0,0 M99.9,235.5
		c-37.1-6.3-48.5-18.6-55-34.1l0,0"/>
</g>
<g>
	<path class="st19" d="M319,238.5c-5.1-18.3,25.5-39.6,33.7-43c14.2-6,61.2,15.1,85.9-11.6l0,0 M379.3,158
		c28.5-24.5,32-40.9,29.6-57.6l0,0 M272.4,192.7c17.7,4.6,37.6-23.9,42-33.4"/>
</g>
<g>
	<path class="st19" d="M239.6,319.3c-18.4-4.8-39.1,26.2-42.4,34.4c-5.7,14.3,16.2,60.9-10.1,86.1c-20.2-10.8-26.2-36.5-26.5-59.4
		c-24.2,29.4-40.7,33.2-57.5,31.1l0,0 M132.3,353.6c-22.7-0.1-47.9-5.8-58.9-25.5"/>
</g>
<g>
	<path class="st19" d="M302.7,301.9c13.3-13.5,47,2.3,54.1,7.7c12.3,9.3,17.5,60.5,53,68.6c11.7-19.6,3.7-44.7-7.8-64.6
		c35.9,12.8,52,7.5,65.3-2.9 M412.1,276.5c-0.2,0-0.4-0.1-0.6-0.1c19.5-11.7,38.6-29.6,38.2-52.2"/>
</g>
<g>
	<path class="st19" d="M239.6,319.3c17.7,4.6,21.3,39.2,20.5,49.6 M302.7,301.9c-12.8,13,1.9,44.5,8,53.1 M227.9,450.2
		c22.5-0.1,39.9-19.4,51.2-39.1c6.9,37.5,19.5,48.8,35.2,55.1c10.2-13.5,15.2-29.6,1.8-65.3c20,11.2,45.3,18.8,64.7,6.7l0,0"/>
</g>
</svg>
